<mxfile host="app.diagrams.net" modified="2022-08-04T12:58:39.688Z" agent="5.0 (Windows NT 10.0; Win64; x64) AppleWebKit/537.36 (KHTML, like Gecko) Chrome/103.0.0.0 Safari/537.36" etag="h575bjQHh2aZJb9gnLhV" version="20.2.3" type="github">
  <diagram id="6I0OCvxSQrVGMHxT2VVA" name="Page-1">
    <mxGraphModel dx="1247" dy="706" grid="1" gridSize="10" guides="1" tooltips="1" connect="1" arrows="1" fold="1" page="1" pageScale="1" pageWidth="850" pageHeight="1100" math="0" shadow="0">
      <root>
        <mxCell id="0" />
        <mxCell id="1" parent="0" />
        <mxCell id="oz_mVlj8kxJvtAulYIj0-1" value="Rolling Stock Contract Award" style="html=1;outlineConnect=0;whiteSpace=wrap;fillColor=#CCCCFF;shape=mxgraph.archimate3.application;appType=outcome;archiType=oct;" parent="1" vertex="1">
          <mxGeometry x="240" y="200" width="150" height="75" as="geometry" />
        </mxCell>
        <mxCell id="5Y3KY6NCU6nYwtHtjhXm-4" value="EA4 : Cloud First" style="html=1;outlineConnect=0;whiteSpace=wrap;fillColor=#CCCCFF;shape=mxgraph.archimate3.application;appType=principle;archiType=oct;" vertex="1" parent="1">
          <mxGeometry x="550" y="200" width="150" height="75" as="geometry" />
        </mxCell>
        <mxCell id="5Y3KY6NCU6nYwtHtjhXm-6" value="Tender Management" style="html=1;outlineConnect=0;whiteSpace=wrap;fillColor=#F5DEAA;shape=mxgraph.archimate3.application;appType=capability;archiType=rounded;" vertex="1" parent="1">
          <mxGeometry x="550" y="350" width="150" height="75" as="geometry" />
        </mxCell>
        <mxCell id="5Y3KY6NCU6nYwtHtjhXm-7" value="&lt;font style=&quot;font-size: 11px;&quot;&gt;Deliver HS2 Land and Property, Procurement, Supply Chain and Commercial outcomes with excellence&lt;/font&gt;" style="html=1;outlineConnect=0;whiteSpace=wrap;fillColor=#CCCCFF;shape=mxgraph.archimate3.application;appType=goal;archiType=oct;" vertex="1" parent="1">
          <mxGeometry x="240" y="40" width="150" height="75" as="geometry" />
        </mxCell>
        <mxCell id="5Y3KY6NCU6nYwtHtjhXm-8" value="Be a catalyst for growth across Britain and form the backbone of our rail network" style="html=1;outlineConnect=0;whiteSpace=wrap;fillColor=#CCCCFF;shape=mxgraph.archimate3.application;appType=driver;archiType=oct;fontSize=11;" vertex="1" parent="1">
          <mxGeometry x="10" y="40" width="150" height="75" as="geometry" />
        </mxCell>
        <mxCell id="5Y3KY6NCU6nYwtHtjhXm-9" value="Contract Lifecycle Management" style="html=1;outlineConnect=0;whiteSpace=wrap;fillColor=#F5DEAA;shape=mxgraph.archimate3.application;appType=capability;archiType=rounded;" vertex="1" parent="1">
          <mxGeometry x="240" y="340" width="150" height="75" as="geometry" />
        </mxCell>
        <mxCell id="5Y3KY6NCU6nYwtHtjhXm-12" value="Jaggaer Contract Management" style="html=1;outlineConnect=0;whiteSpace=wrap;fillColor=#99ffff;shape=mxgraph.archimate3.service;fontSize=11;" vertex="1" parent="1">
          <mxGeometry x="240" y="810" width="150" height="70" as="geometry" />
        </mxCell>
        <mxCell id="5Y3KY6NCU6nYwtHtjhXm-13" value="AWARD" style="html=1;outlineConnect=0;whiteSpace=wrap;fillColor=#99ffff;shape=mxgraph.archimate3.service;fontSize=11;" vertex="1" parent="1">
          <mxGeometry x="640" y="810" width="150" height="70" as="geometry" />
        </mxCell>
        <mxCell id="5Y3KY6NCU6nYwtHtjhXm-14" value="Tender Management" style="html=1;outlineConnect=0;whiteSpace=wrap;fillColor=#ffff99;shape=mxgraph.archimate3.application;appType=proc;archiType=rounded;fontSize=11;" vertex="1" parent="1">
          <mxGeometry x="230" y="595" width="150" height="75" as="geometry" />
        </mxCell>
        <mxCell id="5Y3KY6NCU6nYwtHtjhXm-15" value="Response Evaluation" style="html=1;outlineConnect=0;whiteSpace=wrap;fillColor=#ffff99;shape=mxgraph.archimate3.application;appType=proc;archiType=rounded;fontSize=11;" vertex="1" parent="1">
          <mxGeometry x="425" y="595" width="150" height="75" as="geometry" />
        </mxCell>
        <mxCell id="5Y3KY6NCU6nYwtHtjhXm-16" value="Procure To&amp;nbsp;Pay" style="html=1;outlineConnect=0;whiteSpace=wrap;fillColor=#ffff99;shape=mxgraph.archimate3.application;appType=proc;archiType=rounded;fontSize=11;" vertex="1" parent="1">
          <mxGeometry x="630" y="595" width="150" height="75" as="geometry" />
        </mxCell>
        <mxCell id="5Y3KY6NCU6nYwtHtjhXm-17" value="Contract Development &amp;amp; Tendering" style="html=1;outlineConnect=0;whiteSpace=wrap;fillColor=#ffff99;shape=mxgraph.archimate3.service;fontSize=11;" vertex="1" parent="1">
          <mxGeometry x="410" y="450" width="150" height="70" as="geometry" />
        </mxCell>
      </root>
    </mxGraphModel>
  </diagram>
</mxfile>
